# xmcd
# Copyright (C) 1995-1998 Ti Kan
#
# Track frame offsets:
#       150
#       14471
#       26892
#       38531
#       59380
#       75915
#       95389
#       114669
#       127425
#       141580
#       154618
#       169484
#       190470
#       203678
#       219132
#       231649
#       241153
#       256507
#       273739
#       285057
#       295162
#       315067
#       331304
#
# Disc length: 4642 seconds
#
# Revision: 0
# Processed by: cddbd v1.5.2PL0 Copyright (c) Steve Scherf et al.
# Submitted via: CD-Transfer v1.0
#
DISCID=46122017
DTITLE=Triple J - 
DYEAR=1900
DGENRE=
TTITLE0=Aleksionfire (I'm) Stranded
TTITLE1=Beards, The Sharp Dressed Man
TTITLE2=Bit By Bats Orininoco Flow
TTITLE3=Boat People Bulletproof
TTITLE4=British India Boy From School
TTITLE5=Catfish and The Bottlemen Read My Mind
TTITLE6=Chvrches Do I Wanna Know
TTITLE7=Els I Could Never Take The Place Of Your Man
TTITLE8=Fidlar Red Right Hand
TTITLE9=Grinspoon When You Were Mine
TTITLE10=Holy Holy Love Will Tear Us Appart
TTITLE11=I Know Leopard Waterfalls
TTITLE12=Jebediah Raindrops Keep Falling On My Head
TTITLE13=Kaiser Chiefs Record Collection
TTITLE14=Ladyhawke White Rabbit
TTITLE15=Little Birdy These Boots Are Made For Walkin
TTITLE16=Matt Corby Lonely Boy
TTITLE17=Medics, The Blowin In The Wind
TTITLE18=Mountain Goats Wild World
TTITLE19=Nouvelle Vague Ever Fallen In Love
TTITLE20=Oh, Mercy! Evil Woman
TTITLE21=Philly Three Little Birds
TTITLE22=San Cisco Get Lucky
EXTD=
EXTT0=
EXTT1=
EXTT2=
EXTT3=
EXTT4=
EXTT5=
EXTT6=
EXTT7=
EXTT8=
EXTT9=
EXTT10=
EXTT11=
EXTT12=
EXTT13=
EXTT14=
EXTT15=
EXTT16=
EXTT17=
EXTT18=
EXTT19=
EXTT20=
EXTT21=
EXTT22=
PLAYORDER=
